<svg width="32" height="32" viewBox="0 0 32 32" fill="none" xmlns="http://www.w3.org/2000/svg">
<path d="M16.0024 28.0546C12.7224 28.0546 12.3358 28.0373 11.0558 27.9813C10.0576 27.9485 9.07235 27.7455 8.14244 27.3813C7.34668 27.0716 6.62401 26.5998 6.02033 25.9959C5.41665 25.392 4.94515 24.6691 4.63577 23.8733C4.28552 22.94 4.0966 21.9539 4.07711 20.9573C4.00244 19.6799 4.00244 19.2613 4.00244 16.0066C4.00244 12.7173 4.01977 12.3333 4.07711 11.0599C4.09702 10.0646 4.28594 9.07994 4.63577 8.14792C4.9448 7.35104 5.41662 6.62736 6.0211 6.02311C6.62558 5.41886 7.34944 4.94731 8.14644 4.63859C9.07797 4.28686 10.0629 4.09745 11.0584 4.07859C12.3318 4.00659 12.7504 4.00659 16.0024 4.00659C19.3091 4.00659 19.6891 4.02392 20.9491 4.07859C21.9464 4.09726 22.9358 4.28659 23.8691 4.63859C24.6659 4.94767 25.3896 5.41934 25.994 6.02355C26.5984 6.62775 27.0704 7.35125 27.3798 8.14792C27.7358 9.09459 27.9264 10.0946 27.9411 11.1039C28.0158 12.3813 28.0158 12.7986 28.0158 16.0519C28.0158 19.3053 27.9971 19.7319 27.9411 20.9946C27.9212 21.9922 27.7318 22.9791 27.3811 23.9133C27.0709 24.7097 26.5986 25.4329 25.994 26.0371C25.3894 26.6412 24.6658 27.113 23.8691 27.4226C22.9358 27.7719 21.9504 27.9613 20.9544 27.9813C19.6811 28.0546 19.2638 28.0546 16.0024 28.0546ZM15.9571 6.11726C12.6958 6.11726 12.3571 6.13326 11.0838 6.19059C10.3233 6.20053 9.57018 6.34079 8.85711 6.60526C8.33702 6.80461 7.86447 7.11074 7.46993 7.5039C7.07539 7.89706 6.76761 8.36853 6.56644 8.88792C6.29977 9.60792 6.15977 10.3693 6.15177 11.1373C6.08111 12.4293 6.08111 12.7679 6.08111 16.0066C6.08111 19.2066 6.09311 19.5946 6.15177 20.8786C6.16377 21.6386 6.30377 22.3919 6.56644 23.1053C6.97444 24.1546 7.80644 24.9839 8.85844 25.3866C9.57059 25.6527 10.3236 25.793 11.0838 25.8013C12.3744 25.8759 12.7144 25.8759 15.9571 25.8759C19.2278 25.8759 19.5664 25.8599 20.8291 25.8013C21.5896 25.7921 22.3429 25.6518 23.0558 25.3866C23.5731 25.1857 24.0429 24.8794 24.4355 24.4871C24.828 24.0948 25.1346 23.6251 25.3358 23.1079C25.6024 22.3879 25.7424 21.6253 25.7504 20.8573H25.7651C25.8224 19.5826 25.8224 19.2426 25.8224 15.9853C25.8224 12.7279 25.8078 12.3853 25.7504 11.1119C25.7384 10.3525 25.5982 9.60063 25.3358 8.88792C25.1351 8.36999 24.8287 7.89953 24.4361 7.50652C24.0436 7.11352 23.5735 6.80658 23.0558 6.60526C22.3424 6.33859 21.5891 6.19992 20.8291 6.19059C19.5398 6.11726 19.2024 6.11726 15.9571 6.11726ZM16.0024 22.1653C14.7832 22.166 13.5911 21.8052 12.577 21.1285C11.5628 20.4517 10.7721 19.4894 10.3049 18.3632C9.83773 17.237 9.71502 15.9976 9.9523 14.8017C10.1896 13.6057 10.7762 12.507 11.6379 11.6445C12.4997 10.782 13.5979 10.1945 14.7936 9.95615C15.9893 9.71784 17.2289 9.83948 18.3555 10.3057C19.482 10.7719 20.445 11.5618 21.1227 12.5753C21.8003 13.5889 22.1622 14.7807 22.1624 15.9999C22.1603 17.6335 21.5108 19.1996 20.3562 20.3553C19.2016 21.5109 17.636 22.1617 16.0024 22.1653ZM16.0024 11.9973C15.2113 11.9973 14.438 12.2319 13.7802 12.6714C13.1224 13.1109 12.6097 13.7356 12.3069 14.4665C12.0042 15.1974 11.925 16.0017 12.0793 16.7776C12.2336 17.5535 12.6146 18.2663 13.174 18.8257C13.7334 19.3851 14.4462 19.7661 15.2221 19.9204C15.998 20.0747 16.8023 19.9955 17.5332 19.6928C18.2641 19.39 18.8888 18.8773 19.3283 18.2195C19.7678 17.5617 20.0024 16.7884 20.0024 15.9973C20 14.9371 19.5778 13.9212 18.8281 13.1716C18.0785 12.4219 17.0626 11.9997 16.0024 11.9973ZM22.4024 11.0466C22.2137 11.0459 22.0269 11.008 21.8528 10.9351C21.6787 10.8623 21.5206 10.7558 21.3877 10.6218C21.1191 10.3513 20.969 9.98513 20.9704 9.60392C20.9719 9.22272 21.1246 8.85769 21.3952 8.58914C21.6658 8.32059 22.0319 8.17051 22.4131 8.17193C22.7943 8.17334 23.1593 8.32613 23.4279 8.59668C23.6964 8.86723 23.8465 9.23339 23.8451 9.61459C23.8437 9.9958 23.6909 10.3608 23.4204 10.6294C23.1498 10.8979 22.7836 11.048 22.4024 11.0466Z" fill="white"/>
</svg>
